<?xml version="1.0" standalone="no"?><!DOCTYPE svg PUBLIC "-//W3C//DTD SVG 1.1//EN" "http://www.w3.org/Graphics/SVG/1.1/DTD/svg11.dtd"><svg t="1657903479145" class="icon" viewBox="0 0 1024 1024" version="1.1" xmlns="http://www.w3.org/2000/svg" p-id="5658" xmlns:xlink="http://www.w3.org/1999/xlink" width="200" height="200"><defs><style type="text/css"></style></defs><path d="M206.4 817.6l-11.2 11.2C114.24 747.52 64 635.52 64 512s50.24-235.52 131.2-316.8l11.2 11.2C154.56 258.56 188.48 381.76 281.28 512c-92.8 130.24-126.72 253.44-74.88 305.6z" fill="#E0EBFE" p-id="5659"></path><path d="M829.12 828.48A446.912 446.912 0 0 1 512 960c-123.52 0-235.52-50.24-316.8-131.2l11.2-11.2c52.16 51.84 175.36 17.92 305.6-74.88 130.24 92.8 253.44 126.72 305.6 74.88l11.52 10.88z" fill="#E0EBFE" p-id="5660"></path><path d="M829.12 195.52C909.76 276.8 960 388.48 960 512s-50.24 235.2-130.88 316.48l-11.52-10.88c51.84-52.16 17.92-175.36-74.88-305.6 92.8-130.24 126.72-253.44 74.88-305.6l11.52-10.88z" fill="#E0EBFE" p-id="5661"></path><path d="M829.12 195.52l-11.52 10.88c-52.16-51.84-175.36-17.92-305.6 74.88-130.24-92.8-253.44-126.72-305.6-74.88L195.2 195.2C276.48 114.24 388.48 64 512 64c123.84 0 235.84 50.24 317.12 131.52z" fill="#E0EBFE" p-id="5662"></path><path d="M512 992a477.44 477.44 0 0 0 339.84-140.992C942.208 759.904 992 639.488 992 512s-49.792-247.904-140.256-339.104A477.344 477.344 0 0 0 512 32C384.128 32 263.552 81.92 172.48 172.64 81.92 263.616 32 384.16 32 512s49.92 248.384 140.608 339.456A478.048 478.048 0 0 0 512 992z m-293.44-185.184c-0.224-0.192-0.48-0.384-0.672-0.608l-0.704-0.736c-40.96-42.72-14.4-148.064 65.216-266.208a1040.32 1040.32 0 0 0 93.824 108.544 1043.456 1043.456 0 0 0 108.48 93.76c-115.84 77.696-224.64 105.056-266.176 65.28zM301.568 512a1008 1008 0 0 1 97.248-113.184A1007.84 1007.84 0 0 1 512 301.6c39.328 29.12 77.44 61.504 113.152 97.216A1007.04 1007.04 0 0 1 722.4 512a1008 1008 0 0 1-97.248 113.184A1007.84 1007.84 0 0 1 512 722.4a1007.904 1007.904 0 0 1-113.152-97.216A1007.008 1007.008 0 0 1 301.6 512zM512 928c-83.584 0-163.52-24.64-231.552-70.4 63.04-1.6 144.64-35.296 231.552-95.552 86.912 60.256 168.544 94.016 231.68 95.552A413.216 413.216 0 0 1 512 928z m294.752-122.432l-0.256 0.32-1.024 0.896c-41.76 39.968-150.464 12.448-266.176-65.184a1042.784 1042.784 0 0 0 108.48-93.792 1040.992 1040.992 0 0 0 93.824-108.544c79.744 118.336 106.272 223.776 65.152 266.304zM857.92 280.992A413.664 413.664 0 0 1 928 512c0 83.2-24.544 162.976-70.08 231.008-1.6-61.728-34.4-142.528-95.808-231.008 61.376-88.448 94.208-169.28 95.776-231.008z m-53.312-64.608c0.608 0.576 1.248 1.088 1.824 1.664l0.32 0.32c41.152 42.624 14.592 148.096-65.12 266.368a1040.32 1040.32 0 0 0-93.824-108.544 1042.944 1042.944 0 0 0-108.704-93.952c79.36-53.44 154.848-84.16 209.248-84.16 24.416 0 43.232 6.304 56.256 18.304zM512 96c84.064 0 164.352 24.896 232.544 71.04-62.624 1.408-145.056 34.24-232.544 94.848-87.392-60.544-169.728-93.44-232.32-94.88A413.344 413.344 0 0 1 512 96zM217.12 218.592c0.256-0.224 0.448-0.48 0.64-0.704 0.512-0.512 1.056-0.928 1.6-1.408 13.056-12.096 31.904-18.4 56.32-18.4 54.4 0 129.92 30.72 209.248 84.16a1042.56 1042.56 0 0 0-108.704 93.952 1040.992 1040.992 0 0 0-93.824 108.544c-79.648-118.208-106.176-223.52-65.28-266.144zM96 512c0-83.36 24.512-163.136 70.08-231.104 1.6 61.76 34.368 142.592 95.808 231.104-61.44 88.48-94.24 169.344-95.776 231.104A413.408 413.408 0 0 1 96 512z" fill="#5465CF" p-id="5663"></path></svg>