<?xml version="1.0" encoding="UTF-8" ?>
<!DOCTYPE svg PUBLIC "-//W3C//DTD SVG 1.1//EN" "http://www.w3.org/Graphics/SVG/1.1/DTD/svg11.dtd">
<svg width="1400pt" height="788pt" viewBox="0 0 1400 788" version="1.1" xmlns="http://www.w3.org/2000/svg">
<g id="#fc0101fd">
<path fill="#fc0101" opacity="1.00" d=" M 923.38 157.31 C 938.00 157.29 952.63 157.33 967.26 157.29 C 967.30 170.59 967.30 183.90 967.26 197.21 C 952.63 197.20 938.01 197.27 923.39 197.18 C 923.41 183.89 923.43 170.60 923.38 157.31 Z" />
<path fill="#fc0101" opacity="1.00" d=" M 734.23 216.78 C 738.23 216.75 742.23 216.73 746.23 216.79 C 760.03 232.07 776.58 244.61 793.79 255.78 C 801.64 283.08 808.80 310.66 817.25 337.75 C 817.96 335.54 818.46 333.27 819.25 331.09 C 819.44 330.60 819.82 329.62 820.01 329.13 C 823.62 314.69 828.12 300.42 832.22 286.10 C 832.40 285.61 832.75 284.62 832.92 284.13 C 833.19 282.17 833.82 280.30 834.34 278.40 C 846.26 283.95 858.22 289.48 870.52 294.18 C 869.74 296.45 868.95 298.72 868.20 301.00 C 858.56 327.91 848.71 354.76 839.19 381.71 C 823.91 381.84 808.62 381.79 793.34 381.73 C 773.73 326.72 753.90 271.77 734.23 216.78 Z" />
</g>
<g id="#012c4bfa">
<path fill="#012c4b" opacity="0.98" d=" M 20.02 231.06 C 32.55 217.83 51.21 212.51 68.98 212.10 C 88.66 211.52 109.55 214.40 126.01 225.97 C 139.08 235.33 144.82 251.69 146.03 267.17 C 131.66 267.37 117.27 267.27 102.90 267.23 C 101.74 261.99 100.70 256.26 96.59 252.44 C 90.13 246.19 80.56 245.07 71.98 245.24 C 64.65 245.49 56.31 246.30 51.08 252.09 C 46.02 257.17 47.24 266.91 53.78 270.17 C 79.90 281.33 111.07 279.77 134.33 297.69 C 142.85 304.25 148.74 314.19 150.10 324.88 C 150.18 326.32 150.24 327.76 150.29 329.20 C 135.76 331.53 121.19 333.67 106.67 336.07 C 105.44 331.59 101.98 327.94 97.56 326.51 C 82.48 321.05 66.71 317.85 51.21 313.83 C 36.28 309.36 19.46 304.31 10.40 290.59 C -0.34 271.66 4.57 246.02 20.02 231.06 Z" />
<path fill="#012c4b" opacity="0.98" d=" M 194.27 236.16 C 206.65 221.15 225.96 213.42 245.02 211.93 C 268.67 209.89 294.84 213.40 312.99 230.04 C 337.16 252.86 345.47 288.94 338.94 320.89 C 338.55 322.22 338.12 323.54 337.72 324.86 C 322.78 323.76 307.77 323.56 292.88 322.04 C 296.97 303.13 297.23 281.84 287.49 264.56 C 274.79 242.25 237.40 242.53 225.00 265.00 C 215.40 282.49 215.57 303.98 220.10 322.95 C 205.18 324.30 190.22 325.01 175.30 326.41 C 167.69 295.60 173.31 260.66 194.27 236.16 Z" />
<path fill="#012c4b" opacity="0.98" d=" M 430.76 221.76 C 442.70 213.47 457.96 211.69 472.11 213.20 C 485.98 214.55 500.04 219.96 509.52 230.49 C 518.22 240.48 520.89 254.14 521.38 267.01 C 521.41 298.34 521.41 329.66 521.37 360.99 C 506.86 356.39 492.30 351.91 477.54 348.20 C 477.23 324.68 478.14 301.10 477.08 277.62 C 476.49 268.32 474.20 257.55 465.34 252.64 C 453.96 246.67 438.74 247.57 428.42 255.36 C 418.99 262.86 415.80 275.45 415.35 286.98 C 415.04 302.97 415.35 318.97 415.18 334.96 C 400.82 332.70 386.51 330.11 372.03 328.72 C 371.93 291.52 371.91 254.31 372.05 217.11 C 385.97 217.13 399.89 217.07 413.81 217.14 C 413.86 224.77 413.55 232.42 413.98 240.04 C 419.08 233.54 423.81 226.48 430.76 221.76 Z" />
<path fill="#012c4b" opacity="0.98" d=" M 575.97 229.96 C 591.18 214.55 614.76 209.92 635.47 214.25 C 649.55 217.02 660.45 227.40 667.97 239.10 C 668.36 231.66 668.09 224.20 668.13 216.76 C 682.19 216.70 696.26 216.70 710.32 216.76 C 710.41 263.84 710.34 310.92 710.36 358.00 C 710.36 376.51 711.09 395.73 703.97 413.20 C 699.01 425.58 688.65 435.13 676.74 440.77 C 665.61 431.65 653.34 424.09 641.60 415.84 C 651.53 413.69 660.90 407.18 663.90 397.09 C 667.76 384.53 667.54 371.13 667.24 358.12 C 663.02 363.85 658.88 369.85 652.86 373.86 C 638.54 383.72 619.82 384.18 603.31 380.80 C 584.97 376.88 569.53 363.72 561.06 347.21 C 551.69 329.06 549.73 307.99 551.36 287.89 C 553.10 266.68 560.90 245.34 575.97 229.96 M 626.21 251.03 C 612.31 252.03 601.81 263.83 598.63 276.79 C 593.93 295.13 594.07 316.12 604.40 332.60 C 615.51 349.94 643.30 350.71 656.66 335.64 C 665.80 326.29 667.50 312.50 667.90 300.03 C 667.94 286.12 665.89 270.70 655.64 260.36 C 648.25 252.38 636.73 249.66 626.21 251.03 Z" />
<path fill="#012c4b" opacity="0.98" d=" M 832.22 286.10 C 832.40 285.61 832.75 284.62 832.92 284.13 C 832.75 284.62 832.40 285.61 832.22 286.10 Z" />
<path fill="#012c4b" opacity="0.98" d=" M 923.76 313.00 C 938.14 317.34 952.56 321.55 967.16 325.07 C 967.47 344.01 967.10 362.95 967.35 381.90 C 952.74 381.93 938.07 381.58 923.50 382.08 C 923.84 359.05 923.32 336.02 923.76 313.00 Z" />
<path fill="#012c4b" opacity="0.98" d=" M 0.00 329.09 C 14.53 329.23 29.09 328.84 43.61 329.27 C 44.62 334.76 45.74 340.40 49.07 345.05 C 49.74 346.21 50.38 347.39 50.96 348.61 C 39.89 351.45 28.91 354.66 18.01 358.11 C 14.81 359.02 11.33 361.00 8.08 359.18 C 3.30 351.85 0.60 343.24 0.00 334.54 L 0.00 329.09 Z" />
<path fill="#012c4b" opacity="0.98" d=" M 819.25 331.09 C 819.44 330.60 819.82 329.62 820.01 329.13 C 819.82 329.62 819.44 330.60 819.25 331.09 Z" />
<path fill="#012c4b" opacity="0.98" d=" M 999.57 332.89 C 1016.45 335.88 1033.13 340.07 1050.17 342.18 C 1061.18 352.56 1078.40 355.00 1092.12 348.89 C 1108.54 350.69 1124.99 352.68 1141.41 354.73 C 1141.07 355.29 1140.41 356.43 1140.07 357.00 C 1129.29 372.43 1112.13 382.99 1093.54 385.87 C 1069.23 390.40 1042.82 385.30 1023.28 369.73 C 1011.14 360.90 1003.11 347.33 999.57 332.89 Z" />
<path fill="#012c4b" opacity="0.98" d=" M 1203.30 359.21 C 1221.88 359.24 1240.41 361.04 1259.00 360.71 C 1258.00 367.81 1256.04 374.75 1254.67 381.79 C 1239.68 381.95 1224.69 381.76 1209.70 381.88 C 1207.43 374.37 1205.32 366.80 1203.30 359.21 Z" />
<path fill="#012c4b" opacity="0.98" d=" M 1302.10 360.71 C 1320.57 360.57 1339.02 359.80 1357.47 358.85 C 1357.35 359.41 1357.11 360.53 1356.99 361.09 C 1355.21 368.06 1352.97 374.90 1351.06 381.84 C 1336.17 381.81 1321.27 381.94 1306.38 381.78 C 1305.06 374.73 1303.18 367.79 1302.10 360.71 Z" />
<path fill="#012c4b" opacity="0.98" d=" M 842.37 513.35 C 853.17 504.05 868.58 502.38 882.13 505.08 C 896.45 507.82 908.28 520.57 909.65 535.12 C 905.44 535.18 901.24 535.17 897.05 535.13 C 895.18 527.02 889.73 519.24 881.52 516.69 C 870.68 513.45 857.58 515.00 849.42 523.41 C 841.11 531.54 839.20 543.86 839.22 555.00 C 839.00 566.07 841.85 578.01 850.06 585.92 C 858.49 593.47 871.50 594.76 881.81 590.67 C 891.32 586.62 896.05 576.40 897.97 566.81 C 902.16 566.74 906.35 566.74 910.54 566.82 C 909.20 581.41 900.09 595.58 886.26 601.12 C 870.11 607.41 849.48 604.72 837.82 591.10 C 828.17 580.26 825.69 565.04 826.09 550.99 C 826.16 536.98 831.45 522.51 842.37 513.35 Z" />
<path fill="#012c4b" opacity="0.98" d=" M 335.20 506.20 C 339.08 506.19 342.95 506.19 346.83 506.19 C 346.94 517.83 346.64 529.47 346.99 541.10 C 355.25 529.80 372.54 527.19 383.91 535.10 C 390.02 539.79 391.66 547.98 391.76 555.27 C 391.88 570.78 391.77 586.30 391.82 601.82 C 387.82 601.83 383.82 601.82 379.82 601.83 C 379.73 586.55 379.88 571.26 379.75 555.98 C 379.67 551.18 378.73 545.45 374.10 542.95 C 366.51 539.07 356.46 541.52 351.03 547.98 C 347.59 552.54 347.06 558.50 346.86 564.02 C 346.80 576.62 346.86 589.22 346.84 601.83 C 342.96 601.83 339.08 601.83 335.20 601.81 C 335.23 569.94 335.22 538.07 335.20 506.20 Z" />
<path fill="#012c4b" opacity="0.98" d=" M 40.82 506.53 C 45.66 506.48 50.50 506.50 55.35 506.51 C 67.00 538.23 78.40 570.04 90.00 601.78 C 85.23 601.84 80.46 601.88 75.70 601.75 C 72.67 592.20 69.39 582.73 66.10 573.27 C 53.54 573.35 40.98 573.23 28.41 573.33 C 25.15 582.83 21.46 592.18 18.33 601.73 C 13.86 601.89 9.38 601.85 4.91 601.75 C 16.95 570.04 28.78 538.24 40.82 506.53 M 32.20 562.62 C 42.13 562.89 52.07 562.69 62.01 562.73 C 57.19 548.78 52.47 534.80 47.57 520.88 C 42.25 534.72 37.40 548.74 32.20 562.62 Z" />
<path fill="#012c4b" opacity="0.98" d=" M 121.96 506.56 C 147.74 506.46 173.52 506.49 199.31 506.54 C 199.33 510.31 199.33 514.09 199.29 517.87 C 188.59 517.83 177.89 517.81 167.20 517.88 C 167.21 545.86 167.24 573.85 167.18 601.84 C 162.83 601.82 158.48 601.83 154.13 601.83 C 154.11 573.84 154.15 545.85 154.12 517.87 C 143.42 517.81 132.72 517.86 122.02 517.84 C 121.91 514.08 121.93 510.31 121.96 506.56 Z" />
<path fill="#012c4b" opacity="0.98" d=" M 557.13 506.57 C 561.05 506.47 564.97 506.47 568.89 506.56 C 568.76 538.32 568.87 570.07 568.84 601.82 C 564.95 601.83 561.07 601.83 557.18 601.82 C 557.17 570.07 557.27 538.32 557.13 506.57 Z" />
<path fill="#012c4b" opacity="0.98" d=" M 201.99 539.00 C 214.24 526.96 236.50 528.46 247.32 541.67 C 253.80 549.85 254.25 560.83 254.24 570.82 C 237.27 570.78 220.30 570.80 203.34 570.81 C 203.57 578.01 205.39 586.02 211.21 590.78 C 221.61 598.30 238.70 593.16 241.69 580.17 C 245.56 579.97 249.43 580.02 253.31 580.11 C 250.91 593.10 239.35 603.60 226.02 604.08 C 211.64 606.37 196.85 596.85 192.82 582.91 C 188.53 568.13 190.41 550.08 201.99 539.00 M 217.43 541.71 C 208.92 544.17 203.88 553.01 203.52 561.49 C 216.36 561.63 229.20 561.43 242.05 561.60 C 241.79 555.49 239.97 548.93 235.10 544.88 C 230.29 540.80 223.35 540.32 217.43 541.71 Z" />
<path fill="#012c4b" opacity="0.98" d=" M 273.57 539.55 C 283.31 528.75 300.95 527.53 312.99 535.00 C 320.02 539.42 322.27 547.96 323.54 555.64 C 319.71 555.71 315.89 555.69 312.07 555.70 C 310.92 550.97 309.15 545.90 304.89 543.11 C 296.63 538.27 284.24 540.90 280.19 550.05 C 275.15 561.09 274.55 574.82 280.16 585.76 C 284.08 593.95 295.29 595.88 302.84 591.85 C 308.08 588.80 310.64 582.90 311.99 577.26 C 315.85 577.25 319.70 577.22 323.55 577.33 C 322.07 583.80 320.36 590.64 315.57 595.55 C 307.91 603.55 295.55 605.34 285.17 602.72 C 273.03 599.39 265.49 587.09 264.18 575.11 C 262.88 562.77 264.77 548.94 273.57 539.55 Z" />
<path fill="#012c4b" opacity="0.98" d=" M 420.19 542.04 C 428.25 531.20 444.15 527.41 456.08 533.83 C 463.13 537.73 465.46 546.28 465.61 553.81 C 465.89 569.80 465.60 585.80 465.76 601.79 C 461.79 601.83 457.82 601.82 453.85 601.84 C 453.77 586.88 453.90 571.92 453.79 556.97 C 453.76 551.66 452.33 545.44 447.26 542.74 C 436.35 537.55 421.86 545.70 421.15 557.90 C 420.28 572.50 420.94 587.17 420.78 601.80 C 416.89 601.83 413.01 601.83 409.13 601.83 C 409.11 578.65 409.15 555.47 409.11 532.30 C 412.77 532.35 416.43 532.34 420.08 532.31 C 420.22 535.54 420.19 538.79 420.19 542.04 Z" />
<path fill="#012c4b" opacity="0.98" d=" M 503.27 531.12 C 517.66 527.61 534.54 534.65 540.08 548.84 C 544.86 562.30 543.96 578.23 536.66 590.65 C 525.96 608.93 494.88 609.25 483.97 590.99 C 477.20 580.02 477.05 566.10 480.15 553.93 C 483.12 542.99 491.85 533.27 503.27 531.12 M 505.27 541.14 C 494.10 543.87 490.55 556.89 490.32 566.98 C 489.99 576.36 492.45 587.94 501.61 592.51 C 509.80 596.06 521.71 594.75 526.14 586.07 C 531.53 575.17 532.59 561.61 527.74 550.34 C 524.11 541.87 513.62 539.03 505.27 541.14 Z" />
<path fill="#012c4b" opacity="0.98" d=" M 604.37 531.62 C 619.42 527.00 637.96 534.10 643.53 549.42 C 648.45 564.11 646.97 581.80 637.30 594.29 C 628.31 605.11 611.66 606.74 599.21 601.65 C 585.78 595.70 580.48 579.77 581.51 566.02 C 581.51 551.50 589.53 535.65 604.37 531.62 M 606.41 541.77 C 600.70 543.75 597.38 549.31 595.58 554.76 C 592.57 564.47 592.44 575.62 597.14 584.83 C 602.91 597.70 625.12 597.71 630.24 584.29 C 634.64 573.86 635.51 561.44 631.20 550.86 C 627.38 541.40 615.35 538.46 606.41 541.77 Z" />
<path fill="#012c4b" opacity="0.98" d=" M 667.10 538.11 C 677.81 527.64 697.05 529.20 705.92 541.30 C 705.97 538.54 706.03 535.78 706.09 533.02 C 709.65 532.91 713.22 532.92 716.79 533.06 C 716.70 555.27 716.89 577.49 716.69 599.70 C 716.51 609.71 713.46 620.88 704.43 626.47 C 693.57 632.89 679.24 632.89 668.11 627.08 C 661.88 624.00 658.37 617.19 658.04 610.42 C 661.90 610.47 665.77 610.49 669.65 610.40 C 671.82 623.06 688.51 623.86 697.66 618.68 C 706.48 613.01 705.23 601.21 705.68 592.13 C 697.33 605.36 677.13 605.75 665.93 596.07 C 658.74 590.35 656.34 580.79 655.98 572.01 C 655.18 559.94 657.67 546.51 667.10 538.11 M 680.37 542.52 C 672.72 545.10 669.16 553.42 668.38 560.89 C 667.44 569.93 667.14 580.30 673.25 587.72 C 680.89 596.78 697.36 594.01 702.31 583.44 C 707.15 573.52 707.32 561.15 702.94 551.05 C 699.06 542.82 688.69 539.39 680.37 542.52 Z" />
<path fill="#012c4b" opacity="0.98" d=" M 942.43 531.77 C 956.74 527.24 974.47 533.05 981.02 547.11 C 986.75 560.36 985.86 576.45 979.22 589.21 C 971.02 605.54 947.36 608.77 933.08 598.94 C 920.39 589.66 918.32 572.13 920.94 557.70 C 922.99 546.16 930.86 535.14 942.43 531.77 M 945.38 541.60 C 936.01 544.97 932.77 555.96 932.14 564.96 C 931.54 574.39 933.24 585.60 941.45 591.50 C 949.99 596.54 963.85 595.23 968.27 585.30 C 973.23 574.53 974.20 561.41 969.52 550.40 C 965.53 541.40 954.13 538.64 945.38 541.60 Z" />
<path fill="#012c4b" opacity="0.98" d=" M 1010.16 542.05 C 1018.43 528.58 1041.84 525.87 1049.26 541.47 C 1056.63 530.97 1071.92 527.52 1083.04 533.90 C 1089.92 537.98 1091.99 546.54 1092.05 554.01 C 1092.21 569.94 1092.17 585.89 1092.07 601.82 C 1088.05 601.82 1084.04 601.82 1080.03 601.83 C 1079.82 585.53 1080.08 569.23 1079.90 552.94 C 1079.92 549.35 1078.85 545.36 1075.56 543.43 C 1067.81 538.83 1056.10 542.46 1052.89 551.05 C 1051.50 554.50 1051.23 558.27 1051.24 561.95 C 1051.21 575.25 1051.28 588.54 1051.21 601.84 C 1047.23 601.82 1043.26 601.84 1039.30 601.80 C 1039.34 585.87 1039.41 569.95 1039.26 554.03 C 1039.27 549.40 1037.82 543.80 1032.92 542.15 C 1022.94 538.55 1011.48 546.52 1010.87 557.01 C 1009.55 571.89 1010.66 586.91 1010.25 601.84 C 1006.37 601.82 1002.49 601.81 998.62 601.86 C 998.48 578.71 998.66 555.57 998.53 532.43 C 1002.36 532.28 1006.20 532.34 1010.05 532.31 C 1010.18 535.55 1010.14 538.80 1010.16 542.05 Z" />
<path fill="#012c4b" opacity="0.98" d=" M 1119.35 541.87 C 1126.57 531.38 1141.42 527.51 1152.77 533.34 C 1162.76 538.22 1168.42 549.17 1169.04 559.99 C 1169.90 572.74 1168.53 587.41 1158.76 596.74 C 1148.30 607.24 1128.83 606.72 1119.87 594.50 C 1119.63 606.19 1119.85 617.89 1119.75 629.59 C 1115.87 629.49 1112.00 629.49 1108.13 629.59 C 1108.07 597.29 1108.21 564.99 1108.06 532.69 C 1111.85 532.63 1115.64 532.63 1119.44 532.67 C 1119.47 535.73 1119.46 538.80 1119.35 541.87 M 1132.49 541.77 C 1124.69 544.14 1121.04 552.48 1120.01 559.94 C 1118.95 568.61 1118.62 578.11 1123.13 585.93 C 1128.21 595.03 1142.17 596.66 1149.60 589.61 C 1155.14 584.72 1156.92 577.05 1157.27 569.96 C 1157.62 562.07 1156.83 553.49 1151.91 547.00 C 1147.51 541.14 1139.19 539.74 1132.49 541.77 Z" />
<path fill="#012c4b" opacity="0.98" d=" M 1191.00 536.07 C 1200.97 529.60 1213.98 529.35 1225.03 532.99 C 1230.94 534.86 1236.37 539.45 1237.31 545.86 C 1238.72 561.68 1236.28 577.85 1238.58 593.55 C 1240.84 593.79 1243.11 593.79 1245.39 593.74 C 1245.39 596.58 1245.39 599.42 1245.38 602.27 C 1237.63 605.36 1226.96 602.63 1226.41 593.00 C 1217.36 603.28 1200.67 608.11 1188.55 600.51 C 1177.09 593.43 1176.36 574.13 1187.98 566.89 C 1198.31 559.98 1211.49 562.15 1222.96 558.90 C 1228.17 555.70 1227.07 546.95 1222.54 543.57 C 1212.76 537.54 1194.61 539.47 1193.86 553.61 C 1190.29 553.54 1186.74 553.55 1183.19 553.61 C 1183.31 547.07 1185.30 539.91 1191.00 536.07 M 1197.45 573.52 C 1190.07 576.97 1189.96 589.12 1197.44 592.54 C 1205.56 596.37 1215.92 593.23 1222.06 587.07 C 1227.27 581.48 1225.76 573.35 1225.90 566.41 C 1217.24 571.62 1206.39 569.21 1197.45 573.52 Z" />
<path fill="#012c4b" opacity="0.98" d=" M 1267.98 541.73 C 1276.34 531.17 1292.12 527.34 1304.03 533.97 C 1311.31 538.16 1313.31 547.24 1313.37 555.03 C 1313.50 570.63 1313.45 586.25 1313.39 601.86 C 1309.46 601.81 1305.53 601.81 1301.61 601.86 C 1301.42 586.31 1301.74 570.76 1301.45 555.21 C 1301.40 549.03 1297.75 542.08 1290.98 541.49 C 1279.92 539.21 1268.53 548.35 1268.66 559.68 C 1268.19 573.73 1268.65 587.80 1268.42 601.86 C 1264.53 601.81 1260.65 601.82 1256.78 601.84 C 1256.76 578.66 1256.69 555.48 1256.82 532.30 C 1260.50 532.34 1264.18 532.35 1267.87 532.29 C 1267.86 535.44 1267.81 538.58 1267.98 541.73 Z" />
<path fill="#012c4b" opacity="0.98" d=" M 727.11 532.34 C 731.56 532.33 736.01 532.30 740.47 532.36 C 746.49 551.31 752.96 570.11 758.95 589.06 C 765.17 570.16 771.64 551.34 777.63 532.37 C 782.01 532.30 786.39 532.31 790.78 532.37 C 780.34 559.82 771.59 587.94 759.81 614.87 C 757.51 619.61 755.64 625.15 750.87 628.00 C 745.58 630.93 739.16 630.66 733.40 629.57 C 733.42 626.05 733.44 622.53 733.37 619.02 C 737.87 619.74 743.85 621.47 747.01 617.02 C 749.41 612.89 751.17 608.36 752.69 603.84 C 744.44 579.93 735.65 556.16 727.11 532.34 Z" />
<path fill="#012c4b" opacity="0.98" d=" M 1323.93 532.34 C 1328.27 532.68 1333.10 531.60 1337.17 532.83 C 1343.55 551.45 1349.55 570.22 1355.68 588.93 C 1362.00 570.09 1368.27 551.23 1374.45 532.34 C 1378.71 532.32 1382.99 532.32 1387.27 532.34 C 1377.57 559.41 1368.47 586.74 1357.26 613.24 C 1354.70 618.39 1352.93 624.56 1347.87 627.87 C 1342.54 630.88 1336.00 630.80 1330.19 629.48 C 1330.17 626.00 1330.17 622.52 1330.16 619.05 C 1334.47 619.66 1340.16 621.45 1343.42 617.45 C 1346.22 613.36 1347.43 608.43 1349.58 604.00 C 1341.12 580.08 1332.37 556.26 1323.93 532.34 Z" />
</g>
<g id="#537c92fe">
<path fill="#537c92" opacity="1.00" d=" M 1047.18 216.40 C 1067.91 209.93 1091.16 211.04 1111.00 219.98 C 1128.40 227.95 1140.91 244.26 1147.09 262.08 C 1152.64 277.88 1152.57 294.86 1152.42 311.39 C 1114.77 311.43 1077.11 311.35 1039.46 311.43 C 1039.83 322.43 1042.70 333.78 1050.17 342.18 C 1033.13 340.07 1016.45 335.88 999.57 332.89 C 994.05 309.07 994.30 283.39 1002.37 260.18 C 1009.58 239.76 1026.52 223.03 1047.18 216.40 M 1052.12 256.13 C 1045.11 263.18 1042.02 273.03 1040.46 282.62 C 1062.80 282.72 1085.14 282.72 1107.49 282.63 C 1106.82 272.84 1103.77 262.48 1096.03 255.92 C 1084.07 245.50 1063.79 245.04 1052.12 256.13 Z" />
<path fill="#537c92" opacity="1.00" d=" M 923.34 216.79 C 937.99 216.68 952.64 216.75 967.29 216.75 C 967.29 271.80 967.42 326.85 967.35 381.90 C 967.10 362.95 967.47 344.01 967.16 325.07 C 952.56 321.55 938.14 317.34 923.76 313.00 C 923.32 336.02 923.84 359.05 923.50 382.08 C 923.21 326.98 923.48 271.88 923.34 216.79 Z" />
<path fill="#537c92" opacity="1.00" d=" M 1163.32 216.76 C 1166.41 216.72 1169.51 216.71 1172.62 216.79 C 1185.92 231.34 1201.26 244.02 1217.40 255.30 C 1217.31 253.87 1217.21 252.44 1217.09 251.02 C 1223.52 278.72 1229.04 306.63 1235.48 334.32 C 1239.61 314.55 1243.36 294.69 1247.52 274.92 C 1256.48 279.77 1265.21 285.24 1274.85 288.68 C 1269.76 312.71 1264.25 336.65 1259.31 360.71 L 1259.00 360.71 C 1240.41 361.04 1221.88 359.24 1203.30 359.21 C 1189.93 311.74 1176.65 264.24 1163.32 216.76 Z" />
<path fill="#537c92" opacity="1.00" d=" M 1287.90 295.22 C 1299.15 300.13 1310.51 304.94 1322.32 308.39 C 1324.40 317.27 1326.03 326.26 1328.08 335.15 C 1329.68 327.82 1331.35 320.49 1332.74 313.12 C 1333.06 313.03 1333.68 312.85 1333.99 312.76 C 1345.57 315.15 1356.85 321.07 1368.76 320.60 C 1364.81 334.09 1360.99 347.61 1356.99 361.09 C 1357.11 360.53 1357.35 359.41 1357.47 358.85 C 1339.02 359.80 1320.57 360.57 1302.10 360.71 L 1301.82 360.71 C 1297.44 338.83 1292.40 317.08 1287.90 295.22 Z" />
<path fill="#537c92" opacity="1.00" d=" M 337.72 324.86 C 338.12 323.54 338.55 322.22 338.94 320.89 C 335.41 339.75 326.02 357.81 311.52 370.53 C 295.19 384.37 272.87 388.32 252.03 387.56 C 233.83 387.04 214.96 382.18 200.99 369.98 C 188.19 358.57 179.67 342.88 175.30 326.41 C 190.22 325.01 205.18 324.30 220.10 322.95 C 223.13 333.98 230.44 344.48 241.43 348.67 C 251.67 352.46 263.54 352.29 273.51 347.74 C 283.73 342.98 290.07 332.62 292.88 322.04 C 307.77 323.56 322.78 323.76 337.72 324.86 Z" />
<path fill="#537c92" opacity="1.00" d=" M 150.10 324.88 C 152.69 342.85 145.59 361.98 130.97 373.00 C 113.18 386.58 89.55 387.89 68.03 387.33 C 45.50 386.66 20.55 379.50 8.08 359.18 C 11.33 361.00 14.81 359.02 18.01 358.11 C 28.91 354.66 39.89 351.45 50.96 348.61 C 50.38 347.39 49.74 346.21 49.07 345.05 C 59.51 355.00 75.53 354.63 88.94 353.36 C 97.88 352.64 108.96 346.68 106.67 336.07 C 121.19 333.67 135.76 331.53 150.29 329.20 C 150.24 327.76 150.18 326.32 150.10 324.88 Z" />
<path fill="#537c92" opacity="1.00" d=" M 372.03 328.72 C 386.51 330.11 400.82 332.70 415.18 334.96 C 415.15 350.58 415.18 366.20 415.16 381.81 C 400.79 381.83 386.43 381.80 372.06 381.82 C 371.98 364.12 372.03 346.42 372.03 328.72 Z" />
<path fill="#537c92" opacity="1.00" d=" M 1106.19 333.26 C 1120.91 333.24 1135.62 333.27 1150.34 333.25 C 1149.30 341.96 1145.32 350.06 1140.07 357.00 C 1140.41 356.43 1141.07 355.29 1141.41 354.73 C 1124.99 352.68 1108.54 350.69 1092.12 348.89 C 1098.55 345.57 1103.10 339.67 1106.19 333.26 Z" />
</g>
<g id="#00ccfeff">
<path fill="#00ccfe" opacity="1.00" d=" M 746.23 216.79 C 758.41 216.70 770.59 216.75 782.77 216.77 C 786.40 229.78 790.07 242.79 793.79 255.78 C 776.58 244.61 760.03 232.07 746.23 216.79 Z" />
<path fill="#00ccfe" opacity="1.00" d=" M 852.08 216.77 C 867.57 216.74 883.07 216.73 898.56 216.77 C 888.44 244.85 878.34 272.94 868.20 301.00 C 868.95 298.72 869.74 296.45 870.52 294.18 C 858.22 289.48 846.26 283.95 834.34 278.40 C 840.30 257.87 846.28 237.34 852.08 216.77 Z" />
</g>
<g id="#a3bac8ff">
<path fill="#a3bac8" opacity="1.00" d=" M 1172.62 216.79 C 1184.98 216.81 1197.35 216.76 1209.71 216.81 C 1212.12 228.22 1214.70 239.60 1217.09 251.02 C 1217.21 252.44 1217.31 253.87 1217.40 255.30 C 1201.26 244.02 1185.92 231.34 1172.62 216.79 Z" />
<path fill="#a3bac8" opacity="1.00" d=" M 1259.17 216.81 C 1273.77 216.78 1288.38 216.76 1302.99 216.82 C 1309.33 247.37 1315.85 277.87 1322.32 308.39 C 1310.51 304.94 1299.15 300.13 1287.90 295.22 C 1285.56 284.09 1283.19 272.96 1280.71 261.86 C 1278.63 270.77 1276.70 279.72 1274.85 288.68 C 1265.21 285.24 1256.48 279.77 1247.52 274.92 C 1251.43 255.56 1255.41 236.21 1259.17 216.81 Z" />
<path fill="#a3bac8" opacity="1.00" d=" M 1334.28 306.91 C 1340.82 276.88 1347.31 246.83 1353.81 216.79 C 1368.77 216.79 1383.74 216.79 1398.70 216.79 C 1388.84 251.43 1378.54 285.94 1368.76 320.60 C 1356.85 321.07 1345.57 315.15 1333.99 312.76 C 1333.04 310.92 1333.92 308.79 1334.28 306.91 Z" />
<path fill="#a3bac8" opacity="1.00" d=" M 477.08 277.62 C 478.14 301.10 477.23 324.68 477.54 348.20 C 492.30 351.91 506.86 356.39 521.37 360.99 C 521.38 368.04 521.39 375.10 521.37 382.17 C 506.52 382.21 491.66 382.19 476.81 382.18 C 476.98 347.33 476.43 312.44 477.08 277.62 Z" />
<path fill="#a3bac8" opacity="1.00" d=" M 554.54 399.50 C 570.31 399.36 586.09 399.52 601.86 399.42 C 603.26 404.47 605.50 409.97 610.56 412.33 C 619.89 417.13 631.02 417.03 641.14 415.48 L 641.60 415.84 C 653.34 424.09 665.61 431.65 676.74 440.77 C 658.45 449.06 637.78 450.22 618.01 449.18 C 600.72 447.82 582.75 443.27 569.46 431.56 C 560.29 423.47 555.68 411.46 554.54 399.50 Z" />
</g>
</svg>
